<svg id="Capa_1" enable-background="new 0 0 512.007 512.007" height="512" viewBox="0 0 512.007 512.007" width="512" xmlns="http://www.w3.org/2000/svg" xmlns:xlink="http://www.w3.org/1999/xlink"><linearGradient id="SVGID_1_" gradientUnits="userSpaceOnUse" x1="256.003" x2="256.003" y1="512.007" y2="0"><stop offset="0" stop-color="#fd5900"/><stop offset="1" stop-color="#ffde00"/></linearGradient><linearGradient id="SVGID_2_" gradientUnits="userSpaceOnUse" x1="256.003" x2="256.003" y1="374.818" y2="182.674"><stop offset="0" stop-color="#ffe59a"/><stop offset="1" stop-color="#ffffd5"/></linearGradient><g id="Bookmark_1_"><path d="m398.298 509.861-142.295-85.371-142.295 85.371c-4.629 2.783-10.4 2.871-15.088.19-4.717-2.666-7.617-7.646-7.617-13.052v-481.999c0-8.291 6.709-15 15-15h300c8.291 0 15 6.709 15 15v482c0 5.405-2.9 10.386-7.617 13.052-4.645 2.65-10.417 2.606-15.088-.191z" fill="url(#SVGID_1_)"/><path d="m301.941 373.089-45.938-24.141-45.938 24.141c-5.039 2.637-11.162 2.241-15.791-1.143-4.629-3.354-6.943-9.038-5.977-14.663l8.789-51.138-37.148-36.226c-4.102-3.984-5.566-9.946-3.809-15.381 1.758-5.42 6.475-9.375 12.1-10.195l51.357-7.456 22.969-46.523c5.039-10.254 21.855-10.254 26.895 0l22.969 46.523 51.357 7.456c5.625.82 10.342 4.775 12.1 10.195 1.758 5.435.293 11.396-3.809 15.381l-37.148 36.226 8.789 51.138c.967 5.625-1.348 11.309-5.977 14.663-4.458 3.257-10.574 3.89-15.79 1.143z" fill="url(#SVGID_2_)"/></g></svg>